<svg xmlns="http://www.w3.org/2000/svg" version="1.1" xmlns:xlink="http://www.w3.org/1999/xlink">
<svg xml:space="preserve" data-version="2" data-id="lg_MutCME2ls0dpJKILHv" x="0" y="0">
<rect width="100%" height="100%" fill="transparent"></rect>
<rect width="609.13" height="216.73" x="-304.56" y="-108.37" fill="#1e1e1e" paint-order="stroke" rx="0" ry="0" transform="translate(298.88 122.25)scale(.8754)" vector-effect="non-scaling-stroke"></rect>
<rect width="609.13" height="216.73" x="-304.56" y="-108.37" fill="#fff" stroke="#000" stroke-width="8" paint-order="stroke" rx="0" ry="0" transform="translate(275.62 100.25)scale(.8754)" vector-effect="non-scaling-stroke"></rect>
<path fill="#1e1e1e" d="M47.881 143.4v-25.92h4.33v21.85h11.45v4.07Z"></path>
<rect width="15.78" height="25.92" x="-7.89" y="-12.96" fill="none" rx="0" ry="0" transform="translate(56.27 130.94)"></rect>
<path fill="#1e1e1e" d="M66.721 143.4v-25.92h16.74v4.06h-12.4v6.39h10.24V132h-10.24v7.33h12.4v4.07Z"></path>
<rect width="16.74" height="25.92" x="-8.37" y="-12.96" fill="none" rx="0" ry="0" transform="translate(75.6 130.94)"></rect>
<path fill="#1e1e1e" d="M94.011 143.4v-21.86h-8.39v-4.06h21.12v4.06h-8.39v21.86Z"></path>
<rect width="21.12" height="25.92" x="-10.56" y="-12.96" fill="none" rx="0" ry="0" transform="translate(96.68 130.94)"></rect>
<path fill="#1e1e1e" d="M109.261 123.96v-6.48h4.33v6.48Z"></path>
<rect width="4.33" height="6.48" x="-2.17" y="-3.24" fill="none" rx="0" ry="0" transform="translate(111.93 121.22)"></rect>
<path fill="#1e1e1e" d="M126.791 143.94q-2.85 0-5.12-.99-2.28-.99-3.75-2.84-1.46-1.84-1.86-4.38l4.5-.69q.58 2.31 2.37 3.57 1.79 1.26 4.13 1.26 1.38 0 2.61-.43 1.22-.44 1.99-1.26.76-.83.76-2.04 0-.54-.18-1-.18-.46-.53-.82-.35-.36-.9-.65-.55-.3-1.27-.52l-6.69-1.98q-.87-.25-1.87-.67-1-.42-1.89-1.17-.89-.75-1.45-1.91-.57-1.16-.57-2.87 0-2.5 1.27-4.2 1.27-1.7 3.42-2.55 2.15-.85 4.78-.83 2.66.02 4.75.91t3.49 2.58q1.4 1.7 1.98 4.09l-4.66.81q-.29-1.37-1.11-2.33-.82-.96-2-1.47-1.18-.5-2.51-.54-1.29-.02-2.4.39-1.11.4-1.78 1.16-.68.76-.68 1.76 0 .96.58 1.56.57.6 1.43.95.85.36 1.74.59l4.64 1.3q.95.25 2.14.68 1.19.43 2.29 1.21 1.1.77 1.81 2.03.71 1.26.71 3.2 0 2.02-.84 3.54t-2.26 2.53q-1.42 1.01-3.25 1.51-1.82.51-3.82.51"></path>
<rect width="20.9" height="26.98" x="-10.45" y="-13.49" fill="none" rx="0" ry="0" transform="translate(127.01 130.95)"></rect>
<path fill="#1e1e1e" d="M148.061 143.4v-25.92h3.91l8.96 18.36 8.97-18.36h3.9v25.92h-4.05v-16.62l-7.95 16.62h-1.73l-7.94-16.62v16.62Z"></path>
<rect width="25.74" height="25.92" x="-12.87" y="-12.96" fill="none" rx="0" ry="0" transform="translate(161.43 130.94)"></rect>
<path fill="#1e1e1e" d="m177.041 143.4 8.18-25.92h6.35l8.17 25.92h-4.46l-7.42-23.26h.97l-7.32 23.26Zm4.56-5.62v-4.05h13.61v4.05Z"></path>
<rect width="22.7" height="25.92" x="-11.35" y="-12.96" fill="none" rx="0" ry="0" transform="translate(188.9 130.94)"></rect>
<path fill="#1e1e1e" d="M202.981 143.4v-25.92h4.34v12.02l10.35-12.02h5.33l-11.14 12.7 11.89 13.22h-5.5l-10.93-12.1v12.1Z"></path>
<rect width="20.77" height="25.92" x="-10.38" y="-12.96" fill="none" rx="0" ry="0" transform="translate(213.87 130.94)"></rect>
<path fill="#1e1e1e" d="M226.271 143.4v-25.92h16.74v4.06h-12.4v6.39h10.24V132h-10.24v7.33h12.4v4.07Z"></path>
<rect width="16.74" height="25.92" x="-8.37" y="-12.96" fill="none" rx="0" ry="0" transform="translate(235.14 130.94)"></rect>
<path fill="#1e1e1e" d="M254.891 143.4v-25.92h4.34v25.92Z"></path><rect width="4.34" height="25.92" x="-2.17" y="-12.96" fill="none" rx="0" ry="0" transform="translate(257.56 130.94)"></rect>
<path fill="#1e1e1e" d="M270.861 143.4v-21.86h-8.39v-4.06h21.12v4.06h-8.39v21.86Z"></path>
<rect width="21.12" height="25.92" x="-10.56" y="-12.96" fill="none" rx="0" ry="0" transform="translate(273.53 130.94)"></rect>
<path fill="#1e1e1e" d="M292.231 123.96v-6.48h4.33v6.48Z"></path>
<rect width="4.33" height="6.48" x="-2.17" y="-3.24" fill="none" rx="0" ry="0" transform="translate(294.9 121.22)"></rect>
<path fill="#1e1e1e" d="M312.931 143.94q-3.89 0-6.66-1.71-2.78-1.7-4.26-4.74-1.49-3.04-1.49-7.05 0-4.02 1.49-7.06 1.48-3.04 4.26-4.74 2.77-1.7 6.66-1.7 4.48 0 7.47 2.24 2.98 2.24 4.19 6.04l-4.37 1.2q-.76-2.54-2.58-3.97-1.82-1.43-4.71-1.43-2.61 0-4.35 1.17-1.74 1.17-2.61 3.29-.87 2.11-.89 4.96 0 2.84.87 4.95.87 2.12 2.62 3.29t4.36 1.17q2.89 0 4.71-1.44 1.82-1.44 2.58-3.96l4.37 1.21q-1.21 3.79-4.19 6.03-2.99 2.25-7.47 2.25"></path>
<rect width="24.07" height="27" x="-12.04" y="-13.5" fill="none" rx="0" ry="0" transform="translate(313.06 130.94)"></rect>
<path fill="#1e1e1e" d="M328.911 143.4v-25.92h4.34v21.85h11.45v4.07Z"></path>
<rect width="15.79" height="25.92" x="-7.89" y="-12.96" fill="none" rx="0" ry="0" transform="translate(337.3 130.94)"></rect>
<path fill="#1e1e1e" d="M348.121 143.4v-25.92h4.33v25.92Z"></path>
<rect width="4.33" height="25.92" x="-2.17" y="-12.96" fill="none" rx="0" ry="0" transform="translate(350.79 130.94)"></rect>
<path fill="#1e1e1e" d="M368.821 143.94q-3.89 0-6.66-1.71-2.78-1.7-4.26-4.74-1.49-3.04-1.49-7.05 0-4.02 1.49-7.06 1.48-3.04 4.26-4.74 2.77-1.7 6.66-1.7 4.48 0 7.47 2.24 2.98 2.24 4.19 6.04l-4.37 1.2q-.76-2.54-2.58-3.97-1.82-1.43-4.71-1.43-2.61 0-4.35 1.17-1.74 1.17-2.61 3.29-.87 2.11-.89 4.96 0 2.84.87 4.95.87 2.12 2.62 3.29t4.36 1.17q2.89 0 4.71-1.44 1.82-1.44 2.58-3.96l4.37 1.21q-1.21 3.79-4.19 6.03-2.99 2.25-7.47 2.25"></path>
<rect width="24.07" height="27" x="-12.04" y="-13.5" fill="none" rx="0" ry="0" transform="translate(368.95 130.94)"></rect>
<path fill="#1e1e1e" d="M384.441 143.4v-25.92h4.34v12.02l10.35-12.02h5.33l-11.15 12.7 11.9 13.22h-5.51l-10.92-12.1v12.1Z"></path>
<rect width="20.77" height="25.92" x="-10.38" y="-12.96" fill="none" rx="0" ry="0" transform="translate(395.33 130.94)"></rect>
<path fill="#1e1e1e" d="M407.371 123.96v-6.48h4.34v6.48Z"></path>
<rect width="4.34" height="6.48" x="-2.17" y="-3.24" fill="none" rx="0" ry="0" transform="translate(410.04 121.22)"></rect>
<g paint-order="stroke">
<path fill="#d5ec51" stroke="#1e1e1e" stroke-width="2.25" d="M445.758 111.19a1.11 1.11 0 0 1-.786-.338l-7.474-7.473a1.11 1.11 0 0 1-.337-.787c0-.28.113-.562.337-.787l17.813-17.812-8.654-8.653c-.28-.281-.393-.674-.28-1.011.055-.394.336-.675.674-.843l43.996-17.588c.394-.168.9-.056 1.237.225.337.337.393.787.224 1.236l-17.587 43.997c-.113.337-.45.618-.843.674a1.277 1.277 0 0 1-1.011-.28l-8.654-8.654-17.812 17.812c-.28.169-.562.281-.843.281zm-5.9-8.598 5.9 5.9L463.57 90.68c.45-.45 1.124-.45 1.574 0l8.26 8.26 16.014-40.008-40.007 16.015 8.26 8.26c.449.45.449 1.123 0 1.573z"></path>
<g clip-path="url(#a)" transform="translate(464.88 83.5)scale(.5619)">
<clipPath id="a">
<path stroke-linecap="round" d="M-34.032 49.27c-.5 0-1-.2-1.4-.6l-13.3-13.3c-.4-.4-.6-.9-.6-1.4 0-.5.2-1 .6-1.4l31.7-31.7-15.4-15.4c-.5-.5-.7-1.2-.5-1.8.1-.7.6-1.2 1.2-1.5l78.3-31.3c.7-.3 1.6-.1 2.2.4.6.6.7 1.4.4 2.2l-31.3 78.3c-.2.6-.8 1.1-1.5 1.2-.7.1-1.3-.1-1.8-.5l-15.4-15.4-31.7 31.7c-.5.3-1 .5-1.5.5m-10.5-15.3 10.5 10.5 31.7-31.7c.8-.8 2-.8 2.8 0l14.7 14.7 28.5-71.2-71.2 28.5 14.7 14.7c.8.8.8 2 0 2.8z"></path>
</clipPath>
<path fill="#d5ec51" stroke="#1e1e1e" stroke-width="4" d="M-34.032 49.27c-.5 0-1-.2-1.4-.6l-13.3-13.3c-.4-.4-.6-.9-.6-1.4 0-.5.2-1 .6-1.4l31.7-31.7-15.4-15.4c-.5-.5-.7-1.2-.5-1.8.1-.7.6-1.2 1.2-1.5l78.3-31.3c.7-.3 1.6-.1 2.2.4.6.6.7 1.4.4 2.2l-31.3 78.3c-.2.6-.8 1.1-1.5 1.2-.7.1-1.3-.1-1.8-.5l-15.4-15.4-31.7 31.7c-.5.3-1 .5-1.5.5zm-10.5-15.3 10.5 10.5 31.7-31.7c.8-.8 2-.8 2.8 0l14.7 14.7 28.5-71.2-71.2 28.5 14.7 14.7c.8.8.8 2 0 2.8z"></path>
</g>
<path fill="#d5ec51" stroke="#1e1e1e" stroke-width="2.25" d="M486.89 47.414a1.11 1.11 0 0 1-.787-.338l-12.475-12.418a1.086 1.086 0 0 1 0-1.573c.45-.45 1.124-.45 1.574 0l12.474 12.474c.45.45.45 1.124 0 1.574-.225.168-.506.28-.787.28zm27.308 27.308a1.11 1.11 0 0 1-.787-.337l-12.474-12.418a1.086 1.086 0 0 1 0-1.574c.45-.45 1.124-.45 1.573 0l12.474 12.475c.45.45.45 1.123 0 1.573-.224.168-.505.28-.786.28zm-12.812-25.96a1.11 1.11 0 0 1-.786-.337 1.086 1.086 0 0 1 0-1.573l12.53-12.53c.45-.45 1.124-.45 1.573 0 .45.449.45 1.123 0 1.573l-12.53 12.53a1.11 1.11 0 0 1-.787.337zm11.07 6.181h-8.541c-.618 0-1.124-.506-1.124-1.124s.506-1.124 1.124-1.124h8.54c.619 0 1.125.506 1.125 1.124s-.506 1.124-1.124 1.124zm-17.532-9.44a1.127 1.127 0 0 1-1.123-1.124v-8.822c0-.618.505-1.123 1.123-1.123s1.124.505 1.124 1.123v8.822c0 .618-.505 1.124-1.124 1.124zm-10.62 9.44h-8.54c-.618 0-1.124-.506-1.124-1.124s.506-1.124 1.124-1.124h8.54c.619 0 1.124.506 1.124 1.124s-.505 1.124-1.123 1.124zm10.62 18.711a1.127 1.127 0 0 1-1.123-1.124v-8.82c0-.618.505-1.124 1.123-1.124s1.124.506 1.124 1.124v8.821c0 .619-.505 1.124-1.124 1.124z"></path>
</g>
</svg>
</svg>